<svg width="40" height="40" viewBox="0 0 40 40" fill="none" xmlns="http://www.w3.org/2000/svg">
<g clip-path="url(#clip0_211_2660)">
<path d="M21.4421 20.0001C24.6283 20.0001 27.2113 17.6016 27.2113 14.6429C27.2113 11.6842 24.6283 9.28577 21.4421 9.28577C18.2558 9.28577 15.6729 11.6842 15.6729 14.6429C15.6729 17.6016 18.2558 20.0001 21.4421 20.0001Z" stroke="#00868A" stroke-width="3" stroke-linecap="round" stroke-linejoin="round"/>
<path d="M1.25 9.28584H4.13462V6.60726C4.13462 5.18646 4.74244 3.82385 5.82438 2.81919C6.90632 1.81453 8.37375 1.25012 9.90385 1.25012H32.9808C34.5109 1.25012 35.9783 1.81453 37.0602 2.81919C38.1422 3.82385 38.75 5.18646 38.75 6.60726V33.393C38.75 34.8138 38.1422 36.1764 37.0602 37.1811C35.9783 38.1857 34.5109 38.7501 32.9808 38.7501H9.90385C8.37375 38.7501 6.90632 38.1857 5.82438 37.1811C4.74244 36.1764 4.13462 34.8138 4.13462 33.393V30.7144H1.25M1.25 20.0001H4.13462M1.25 14.643H4.13462M1.25 25.3573H4.13462" stroke="#00868A" stroke-width="3" stroke-linecap="round" stroke-linejoin="round"/>
<path fill-rule="evenodd" clip-rule="evenodd" d="M30.0963 28.0361V25.3575C30.0963 23.9367 29.4884 22.5741 28.4065 21.5694C27.3246 20.5648 25.8571 20.0004 24.327 20.0004H18.5578C17.0277 20.0004 15.5603 20.5648 14.4783 21.5694C13.3964 22.5741 12.7886 23.9367 12.7886 25.3575V28.0361C12.7886 28.7465 13.0925 29.4278 13.6335 29.9301C14.1744 30.4324 14.9081 30.7147 15.6732 30.7147H27.2117C27.9767 30.7147 28.7104 30.4324 29.2514 29.9301C29.7924 29.4278 30.0963 28.7465 30.0963 28.0361Z" stroke="#00868A" stroke-width="3" stroke-linecap="round" stroke-linejoin="round"/>
</g>
<defs>
<clipPath id="clip0_211_2660">
<rect width="40" height="40" fill="white"/>
</clipPath>
</defs>
</svg>
