<svg width="40" height="41" viewBox="0 0 40 41" fill="none" xmlns="http://www.w3.org/2000/svg">
<g clip-path="url(#clip0_211_2665)">
<path d="M23.7253 37.4024V34.468L24.9874 33.9532C25.6816 33.67 26.3006 33.4251 26.3629 33.4089C26.4657 33.3822 26.5483 33.4879 27.2573 34.5537C27.6868 35.1995 28.0535 35.7277 28.0721 35.7273C28.0907 35.7269 28.1743 35.6244 28.2578 35.4993C28.7026 34.833 29.6448 33.4836 29.7 33.4338C29.7519 33.3869 30.0103 33.4772 31.0986 33.9225L32.4335 34.4688V37.4002C32.4335 39.0124 32.4231 40.3316 32.4104 40.3316C32.3977 40.3316 31.424 39.6673 30.2466 38.8554C29.0693 38.0435 28.0886 37.379 28.0673 37.3788C28.0461 37.3785 27.0903 38.0289 25.9434 38.824C24.7965 39.6191 23.8282 40.2847 23.7917 40.3032C23.7389 40.3299 23.7253 39.7388 23.7253 37.4024ZM3.11059 38.8535C1.65029 38.6524 0.424402 37.7095 0.119679 36.5531C0.0566255 36.3138 0.0452922 33.7397 0.0452922 19.6587C0.0452922 1.42815 0.0211923 2.76001 0.361845 2.1646C0.842474 1.32452 1.70935 0.729361 2.77791 0.505829C3.18898 0.419836 3.36558 0.418945 20.0084 0.418945C36.5703 0.418945 36.8298 0.420237 37.2331 0.50459C38.2875 0.72517 39.1563 1.31488 39.6364 2.13598C40.0021 2.76137 39.9755 1.31358 39.9605 19.7766L39.9469 36.488L39.7912 36.8528C39.3974 37.7755 38.5298 38.4561 37.3451 38.7716C37 38.8635 36.8604 38.8719 35.3937 38.8883L33.814 38.9061V37.8599V36.8137H34.4996C35.0233 36.8137 35.2614 36.7943 35.5083 36.7314C36.1572 36.5662 36.6955 36.1784 37.0133 35.6472L37.1858 35.3588V19.6587V3.95853L36.9927 3.62782C36.6539 3.04756 35.9855 2.61555 35.2537 2.50384C35.0663 2.47523 29.8052 2.4604 19.9879 2.46082C3.58933 2.46152 4.66174 2.44468 4.05978 2.71106C3.63233 2.90021 3.25474 3.23288 3.02943 3.61883L2.83112 3.95853V19.6587V35.3588L2.99558 35.6411C3.2994 36.1626 3.85947 36.5662 4.50855 36.7314C4.82017 36.8107 5.1404 36.8137 13.429 36.8137H22.0262V37.856V38.8984L12.6941 38.8933C7.56152 38.8905 3.24892 38.8726 3.11059 38.8535ZM27.332 33.5346C26.802 32.6141 26.5982 32.3007 26.5373 32.3121C26.4922 32.3206 25.8376 32.6647 25.0826 33.0769L23.71 33.8262L23.7476 33.4199C23.7683 33.1964 23.8278 32.5738 23.8799 32.0363C23.9319 31.4989 23.9685 31.0493 23.9611 31.0373C23.9537 31.0253 23.2943 31.0496 22.4957 31.0913C21.6972 31.133 20.9342 31.1624 20.8001 31.1566L20.5563 31.146L21.5036 30.027C22.0247 29.4115 22.451 28.8919 22.451 28.8723C22.451 28.8527 21.77 28.5656 20.9377 28.2343C20.1053 27.903 19.4245 27.6213 19.4247 27.6083C19.4248 27.5953 19.7534 27.4587 20.1548 27.3047C20.5562 27.1507 21.2491 26.8818 21.6945 26.7072L22.5045 26.3898L21.5441 25.2126L20.5837 24.0355L20.9996 24.063C23.4318 24.2239 24.0112 24.26 24.0212 24.251C24.0276 24.2453 23.9853 23.6285 23.9271 22.8803C23.8689 22.1322 23.8337 21.5099 23.8489 21.4975C23.8795 21.4724 24.0882 21.5849 25.5681 22.4244C26.129 22.7425 26.6077 23.0028 26.6319 23.0028C26.6561 23.0028 27.0168 22.4435 27.4333 21.7599C27.8499 21.0763 28.1992 20.5242 28.2096 20.533C28.2199 20.5418 28.5436 21.0962 28.9289 21.765C29.3142 22.4339 29.6458 22.9954 29.6658 23.0128C29.6858 23.0303 30.331 22.7016 31.0995 22.2823C31.868 21.8631 32.5094 21.5304 32.5248 21.543C32.5538 21.5667 32.3457 23.9143 32.2924 24.1646C32.2561 24.3351 32.055 24.3291 34.0172 24.2164C34.8737 24.1672 35.6066 24.1329 35.6458 24.1403C35.6907 24.1487 35.3636 24.5739 34.7668 25.2829C34.244 25.904 33.8158 26.4261 33.8152 26.4433C33.8146 26.4604 34.501 26.7504 35.3406 27.0878L36.8672 27.7012L36.3893 27.8937C36.1265 27.9996 35.4272 28.2763 34.8354 28.5086L33.7594 28.9311L34.7141 30.1016C35.2392 30.7453 35.6637 31.2748 35.6574 31.2782C35.6511 31.2816 35.1561 31.2501 34.5574 31.2081C33.9587 31.1661 33.1854 31.1176 32.8389 31.1004L32.209 31.0691L32.2412 31.3247C32.3013 31.8014 32.4421 33.6793 32.4244 33.7698C32.4091 33.8484 32.2998 33.799 31.5573 33.3774C30.3368 32.6845 29.6381 32.2969 29.6095 32.2969C29.5958 32.2969 29.2519 32.8535 28.8453 33.5337C28.4386 34.2139 28.0922 34.7709 28.0754 34.7714C28.0586 34.772 27.724 34.2154 27.332 33.5346ZM27.6891 31.4886C27.8596 31.4226 28.0505 31.2974 28.1965 31.1558C28.3252 31.031 29.4805 29.9127 30.7638 28.6707C32.0472 27.4288 33.151 26.3261 33.2167 26.2204C33.5465 25.6898 33.1985 24.9621 32.5131 24.7495C32.0522 24.6066 31.5291 24.6729 31.1885 24.9175C31.0876 24.99 30.1267 25.8985 29.0532 26.9365C27.9797 27.9744 27.0836 28.8185 27.0619 28.8122C27.0402 28.8059 26.7286 28.5282 26.3695 28.1951C25.6141 27.4944 25.4092 27.3806 24.9035 27.3806C24.4991 27.3806 24.1845 27.4937 23.9193 27.7346C23.6517 27.9775 23.566 28.1555 23.566 28.4687C23.566 28.6664 23.5997 28.7768 23.7121 28.9473C23.9354 29.2862 26.191 31.3704 26.4556 31.4822C26.8888 31.6654 27.2275 31.6672 27.6891 31.4886ZM6.14976 22.2429V21.005H12.7613H19.3729L19.3588 22.2319L19.3447 23.4588L12.7472 23.4699L6.14976 23.4809L6.14976 22.2429ZM6.14976 17.0311V15.7933H20.035H33.9202V17.0311V18.2689H20.035H6.14976V17.0311ZM6.14976 11.8629V10.6251H20.035H33.9202V11.8629V13.1007H20.035H6.14976V11.8629ZM6.14976 6.69465V5.45688H20.035H33.9202V6.69465V7.93242H20.035H6.14976V6.69465Z" fill="#00868A"/>
</g>
<defs>
<clipPath id="clip0_211_2665">
<rect width="40" height="40" fill="white" transform="translate(0 0.375)"/>
</clipPath>
</defs>
</svg>
