<svg width="32" height="32" viewBox="0 0 32 32" fill="none" xmlns="http://www.w3.org/2000/svg">
<g clip-path="url(#clip0_34_10)">
<path d="M22.2672 0H10.1215C4.5324 0 0 4.478 0 10V22C0 27.522 4.5324 32 10.1215 32H22.2672C27.8563 32 32.3887 27.522 32.3887 22V10C32.3887 4.478 27.8563 0 22.2672 0ZM29.3523 22C29.3523 25.86 26.1741 29 22.2672 29H10.1215C6.21459 29 3.03644 25.86 3.03644 22V10C3.03644 6.14 6.21459 3 10.1215 3H22.2672C26.1741 3 29.3523 6.14 29.3523 10V22Z" fill="#00868A"/>
<path d="M16.1943 8C11.7227 8 8.09717 11.582 8.09717 16C8.09717 20.418 11.7227 24 16.1943 24C20.666 24 24.2915 20.418 24.2915 16C24.2915 11.582 20.666 8 16.1943 8ZM16.1943 21C13.4049 21 11.1336 18.756 11.1336 16C11.1336 13.242 13.4049 11 16.1943 11C18.9838 11 21.2551 13.242 21.2551 16C21.2551 18.756 18.9838 21 16.1943 21Z" fill="#00868A"/>
<path d="M24.8958 8.46659C25.4917 8.46659 25.9748 7.98933 25.9748 7.40059C25.9748 6.81186 25.4917 6.33459 24.8958 6.33459C24.3 6.33459 23.8169 6.81186 23.8169 7.40059C23.8169 7.98933 24.3 8.46659 24.8958 8.46659Z" fill="#00868A"/>
</g>
<defs>
<clipPath id="clip0_34_10">
<rect width="32.3887" height="32" fill="white"/>
</clipPath>
</defs>
</svg>
