<svg width="152" height="80" viewBox="0 0 152 80" fill="none" xmlns="http://www.w3.org/2000/svg">
<path fill-rule="evenodd" clip-rule="evenodd" d="M4.06289 70.9277C4.06289 70.7791 4.15607 70.9185 4.09784 70.9277C4.09714 70.9279 4.06289 71.0901 4.06289 70.9277ZM3.94516 69.881L4.29835 69.1831C4.29157 69.4842 4.12953 69.759 3.94516 69.881ZM4.29835 69.7646C4.31951 69.5134 4.48202 69.127 4.71046 69.0667C4.84386 69.3415 4.67024 69.4025 4.65201 69.7651C4.62009 70.3989 4.55895 70.2805 4.53381 70.5789C4.48459 70.5022 4.50528 70.4184 4.35505 70.3569L4.29835 69.7646ZM8.83114 67.3803L8.53746 67.9625C8.53115 67.9738 8.52308 67.9891 8.51654 67.9999L8.41915 68.1363C8.43049 67.6284 8.59159 67.5055 8.83114 67.3803ZM13.3641 58.4243C13.3641 58.1275 13.3632 58.3278 13.4229 58.2498C13.4229 58.5573 13.4225 58.3366 13.3641 58.4243ZM81.1802 40.0471C81.2591 39.9881 81.0564 39.9889 81.3568 39.9889C81.2848 40.0427 81.423 40.0267 81.1802 40.0471ZM77.1772 38.8258L76.8239 38.7095C76.961 38.678 77.1481 38.5643 77.253 38.571C77.4854 38.5858 77.2573 38.6796 77.1772 38.8258ZM77.2949 38.2442C77.3575 38.1824 77.5182 38.3365 77.3605 38.2745C77.3591 38.2739 77.1963 38.3417 77.2949 38.2442ZM78.0601 37.4882C77.9952 37.5477 78.1631 37.5463 77.8836 37.5463C77.9486 37.487 77.7806 37.4882 78.0601 37.4882ZM77.5892 38.1861C77.6575 38.0891 77.7107 38.061 77.6956 37.9819L77.672 37.9453C77.6402 37.8338 77.5589 38.0202 77.6824 37.8693C77.7758 37.7552 78.0186 37.6412 78.1779 37.6046C78.1373 37.4534 78.1997 37.5396 78.0601 37.4882L78.1415 37.4502C78.2546 37.4038 78.4473 37.3236 78.5235 37.3598C78.7762 37.4798 78.4241 37.6283 78.3612 37.6672C78.0897 37.835 77.9631 38.1001 77.5892 38.1861ZM14.6592 28.7067C14.7949 28.5901 15.0857 28.418 15.2479 28.6486C15.0068 28.704 14.9714 28.7067 14.6592 28.7067ZM12.5988 25.45H12.3633C12.4733 25.3811 12.2318 25.3846 12.481 25.4021C12.6075 25.4109 12.5327 25.407 12.5988 25.45ZM62.4013 1.37358H62.1657C62.2758 1.3045 62.0343 1.3082 62.2834 1.32552C62.4091 1.3343 62.3361 1.33269 62.4013 1.37358ZM10.4206 25.6827C10.3322 25.8381 10.4816 25.8448 10.6835 25.8851C10.8887 25.926 11.0256 25.9153 11.2448 25.9153C11.2472 25.9221 11.2366 25.9261 11.2357 25.9352C11.2215 26.0701 10.9893 26.0008 11.2157 26.1194C11.3568 26.1934 11.5046 26.0943 11.7157 26.0897C11.7628 25.9705 11.7225 26.0792 11.7217 26.0001L11.7176 25.9338C11.7175 25.9318 11.7136 25.9211 11.7157 25.9153C11.9826 25.9153 12.2347 25.8825 12.3044 25.6244H12.7165C12.6726 25.7867 12.7053 25.7078 12.6017 25.8019C12.5912 25.8114 12.4308 25.9102 12.3836 25.9353C12.2096 26.028 12.1298 26.0594 11.9301 26.1271C11.1066 26.4061 11.2608 26.2369 10.9504 26.0315C10.7332 26.145 10.5885 26.2989 10.3028 26.3223C10.4673 26.5441 10.7878 26.4585 11.1271 26.3806C11.0912 26.8067 10.8654 26.5625 10.6399 26.512C10.3162 26.4396 10.118 26.5609 9.89084 26.6131L9.71418 26.9039C9.91995 26.9208 9.88721 26.9159 10.0086 27.0202C9.64193 27.1046 9.68612 27.1366 9.18445 27.1366C9.31107 27.0278 9.35047 27.0733 9.42786 26.9635C9.5318 26.8163 9.48293 26.8011 9.41992 26.6713C9.023 26.7039 9.41851 26.7439 8.89007 27.0202C8.92128 26.8876 8.93567 26.8865 8.94888 26.7294C8.78906 26.6927 8.83582 26.6952 8.64724 26.6683C8.03357 26.5808 8.29171 26.9231 8.71341 27.0202V27.1366C8.36163 27.2175 7.91222 27.1761 7.57691 27.2351C7.0203 27.333 7.03748 27.2529 6.47642 27.2529C6.55534 27.5445 6.81675 27.4881 7.30159 27.4872L9.36169 27.3698C9.55296 27.3705 9.74119 27.3499 9.85202 27.3308L10.3028 27.1947C10.5204 27.3083 10.7632 27.461 10.8327 27.718C10.4138 27.718 10.3549 27.6384 10.0602 27.6089C9.69641 27.5724 9.72319 27.6765 9.44938 27.5144C9.29412 27.4226 9.54337 27.4909 9.30218 27.4273L9.13266 27.552C9.25296 27.7157 9.42237 27.6931 9.27588 27.7486C9.12763 27.8048 9.15745 27.7522 9.11887 27.7395C8.84155 27.6475 9.01446 27.5436 8.53688 27.5436C8.45574 27.6889 8.62468 27.611 8.39472 27.6918C8.35543 27.7057 7.99335 27.7618 7.99265 27.7619C7.69125 27.799 7.37127 27.7762 7.06507 27.7762C7.01527 27.8788 6.99726 27.9644 6.94734 28.067L6.66325 27.8236C6.61274 28.0055 6.59415 28.0119 6.59415 28.2414C6.73187 28.3135 6.74742 28.3413 6.94734 28.3578C6.94734 28.5941 6.9277 28.5451 7.00627 28.7067C7.39909 28.7067 7.91234 28.6349 8.2695 28.741C8.46954 28.8004 8.66653 28.8641 8.99833 28.7592L9.27751 28.678C9.60393 28.5999 10.0549 28.6959 10.365 28.7618C10.6512 28.8225 10.4254 28.7614 10.5865 28.8386C11.0725 29.0713 10.9682 28.7014 11.3037 28.7067C11.5813 28.7799 11.5464 28.9996 11.9525 28.8262C12.1891 28.7253 12.2086 28.6221 12.4006 28.723C12.5677 28.8107 12.5588 28.9278 12.8639 28.8615C13.8236 28.653 13.2453 28.8881 14.0714 28.8847L15.2043 28.7794C15.6573 28.6329 15.0302 28.762 15.4402 28.658C16.3017 28.4393 16.4537 28.5905 17.0727 28.5905V28.6486C16.6453 28.6486 16.4199 28.7067 15.9542 28.7067C15.95 28.7155 15.9545 28.7228 15.9547 28.7357L15.959 28.796C15.9689 28.9625 16.0135 28.9787 15.7957 28.9774L15.1889 29.1138C15.82 29.259 18.3587 29.045 18.6825 28.9013C18.9804 28.769 18.5767 28.8588 18.9074 28.7745C19.069 28.7332 20.0656 28.7649 20.3105 28.7649C20.2988 28.7729 20.2803 28.7705 20.2745 28.7874C20.2517 28.8523 19.9027 28.8831 19.848 28.8895C19.6332 28.9148 19.5347 28.911 19.4275 29.0556H21.429C21.555 28.8697 21.5257 29.015 21.5467 28.7649C21.8595 28.7649 21.9031 28.8039 22.1354 28.823C22.1699 28.8953 22.1562 28.8119 22.1534 28.9092C22.1534 28.9107 22.137 29.0364 22.1354 29.0556C22.4791 29.0274 22.1705 29.0348 22.4043 28.9723C22.5778 28.926 22.6107 28.9579 22.7743 28.9308C23.0381 28.887 23.0259 28.7351 23.3716 28.7067L23.1951 28.8812C24.4963 28.9882 23.5823 28.9897 24.9022 28.8812C24.8382 29.1529 24.1867 30.1464 23.9956 30.428C23.3623 31.3608 22.6899 32.5609 22.0872 33.5442L14.4795 47.2554C14.0821 47.9362 13.4709 49.3532 13.1709 49.7428C12.9024 50.0916 11.6988 52.4678 11.4214 53.0157C11.284 53.2873 11.1467 53.5585 11.0093 53.83L10.5972 54.7023C10.8291 54.6195 10.6038 54.6936 10.8327 54.5279C10.7387 54.9266 10.5709 55.1761 10.3599 55.4581C10.0563 55.8639 10.4257 55.5148 9.96917 56.4081C9.79976 56.7396 9.68671 57.0253 9.518 57.3581L8.5875 59.2885C8.44873 59.627 8.26506 59.9147 8.11658 60.2771L6.29918 64.1811C5.77658 65.2191 4.61448 67.9424 4.10486 69.1082C3.9883 69.3748 3.73343 69.8895 3.7097 70.1717C3.84672 70.0159 3.75997 70.015 3.94516 69.881C3.84087 70.3234 3.53304 70.5768 3.53304 71.1605C3.71051 71.032 3.87104 70.5528 4.04255 70.2098C4.08101 70.1329 4.08639 70.1149 4.12064 70.0543L4.23954 69.881C4.23954 70.4152 4.09808 70.4786 3.90564 70.8306C3.75822 71.1001 3.62342 71.5332 3.41531 71.6838V71.8582C3.70572 71.7206 3.63113 71.855 3.79107 71.5316C3.88179 71.3484 3.95779 71.2402 4.00397 71.0441H4.23954C4.09773 71.3088 4.02828 71.2999 3.88623 71.5093C3.97661 71.6379 3.89594 71.5816 4.06289 71.6256C4.04173 71.8771 3.69871 72.3559 4.06289 72.2072C4.06289 72.5762 3.93008 72.8644 4.06289 73.1377C4.27801 72.9954 4.17536 72.9786 4.35727 72.8469C4.34932 73.1954 4.20763 73.2822 4.18062 73.6029L4.054 73.315L3.5825 73.4768C3.25596 73.806 3.30214 73.7524 3.29758 73.9518C3.59746 73.8727 3.50125 73.7537 3.7097 73.6029C3.94551 73.8055 3.90599 73.7929 3.82743 74.1264C3.67322 74.0243 3.70572 74.0969 3.65078 73.8938C3.46114 74.031 3.35417 74.3759 3.23866 74.5917C3.88261 74.6446 3.23948 74.6897 3.82743 74.3008C3.82743 74.7094 3.44735 75.4125 3.25327 75.8313C3.12455 76.109 3.23866 76.1223 3.23866 76.4525C2.92709 76.6155 2.91727 76.6496 2.82666 77.0341C3.47038 76.9812 3.51422 75.7683 3.58121 75.5736L3.98421 74.572C4.08978 74.3497 4.1791 74.1503 4.27274 73.9266C4.45396 73.4935 4.53019 73.5225 4.6098 73.329C4.7204 73.06 4.66358 72.7813 4.73958 72.5268C4.84445 72.1762 4.83206 72.4969 5.35793 72.149C5.29795 72.8617 5.05056 72.8038 4.89297 73.1435C4.65259 73.6613 4.39655 73.6007 4.35727 74.0682C4.6423 73.993 4.4252 73.9689 4.71046 73.8938C4.63248 74.1822 4.27824 74.4188 4.12169 74.6497C4.16904 74.825 4.12099 74.7774 4.29835 74.8242C4.29285 75.0693 4.08802 75.4755 3.98503 75.6778L3.59197 76.5107C3.72934 76.696 3.68994 76.558 3.82743 76.7433C3.63359 77.0046 3.55701 76.7859 3.47412 77.0923C3.58822 77.246 3.62143 77.2609 3.88623 77.2667C3.9344 77.0888 4.03027 76.9947 4.12169 76.8597C4.35073 77.0254 4.12543 76.9513 4.35727 77.0341C4.64055 76.6161 4.75606 76.128 5.03034 75.7219C5.76536 74.6336 5.01081 74.9577 5.93512 73.5915C6.08278 73.3732 6.206 73.1835 6.33858 72.9433C6.48519 72.6776 6.60654 72.5832 6.64992 72.2623C6.71562 71.7768 6.81102 71.8908 7.12399 71.6838C7.12399 71.1994 7.03772 70.9118 7.26406 70.7173C7.35888 70.6358 7.31339 70.6886 7.36951 70.6469C7.62262 70.4586 7.5402 70.3362 7.67979 69.9648L8.47725 68.4845C8.5882 68.238 8.95308 67.5743 8.83114 67.3803C9.26968 66.5617 8.58622 67.017 9.28161 66.1387C9.39092 66.0007 9.22689 66.1242 9.41992 65.9845C9.34053 66.3208 9.13418 66.4152 9.12553 66.7987C9.43359 66.8246 9.23192 66.7433 9.30218 66.9151L9.25893 66.9886C9.25717 66.9919 9.20105 67.1034 9.20035 67.1052C9.11337 67.2957 9.01306 67.5531 9.0078 67.7874C9.28465 67.7144 9.40402 67.1754 9.73383 66.5274L10.6687 64.4809C10.7891 64.0941 10.5376 64.4067 10.8184 63.7536C10.8648 63.6453 10.8541 63.6809 10.85 63.6078C10.8437 63.4983 10.7649 63.4912 10.8459 63.3308C10.943 63.1385 10.9485 63.2697 11.166 62.8244L11.2874 62.5955C11.3578 62.4869 11.3107 62.5541 11.3625 62.4952V62.7279C11.6377 62.5458 12.1242 61.5568 12.2582 61.1701C12.3487 60.9085 12.5173 60.8451 12.5398 60.576H12.4221C12.4221 60.0513 12.442 60.3925 12.9232 59.559C13.0319 59.3706 13.1909 59.3337 13.267 59.1426C13.3295 58.9858 13.3014 58.9543 13.3041 58.7723L13.3462 58.4648C13.3492 58.4552 13.3561 58.4367 13.3641 58.4243L13.4818 58.5988C13.5442 58.3341 13.8076 57.9368 13.9615 57.735C14.2146 57.4029 14.2231 57.1418 14.426 56.7982L14.912 55.8826C15.0014 55.6736 15.2078 54.9086 15.3649 54.8676C15.3696 54.8664 15.3898 54.8631 15.3956 54.8612C15.4563 54.8422 15.4439 54.8556 15.4922 54.824C15.7164 54.6778 15.7847 54.2897 15.8794 54.0469C15.9835 53.78 16.0024 53.396 16.1825 53.1831C16.2932 53.0522 16.3665 53.1053 16.399 52.8933C16.4003 52.8852 16.4051 52.7904 16.4084 52.776C16.474 52.5017 16.5323 52.6634 16.6319 52.6651C16.6939 52.6661 16.6866 52.6599 16.7447 52.5288L17.1102 51.8273C17.271 51.5313 17.1394 51.7955 17.12 51.6441C17.0767 51.3061 17.4201 51.1218 17.5734 50.8353C17.6967 50.6046 17.7103 50.597 17.8481 50.4088C18.1396 50.0111 17.8958 49.8223 18.3079 49.4673C18.4723 49.3258 18.4563 49.2987 18.5637 49.0804C18.6609 48.8831 18.7199 48.8177 18.8194 48.6351C19.1193 48.0848 20.0464 46.5326 20.1345 46.0958C20.1831 45.855 20.2495 45.6114 20.4688 45.4374C20.5918 45.3398 20.5261 45.449 20.6733 45.2905C20.7378 45.2211 20.7551 45.1667 20.8033 45.0701L21.2554 44.121C21.5886 43.5533 21.9016 42.8922 22.2874 42.349C23.0735 41.2417 23.1143 40.7537 23.3897 40.3552C23.6066 40.0414 23.344 40.3882 23.5404 40.2401L23.669 40.0541C23.7097 39.9691 23.7407 39.8995 23.7836 39.8144C23.9402 39.5037 24.0986 39.1942 24.2542 38.8836C24.3265 38.7392 24.3958 38.5955 24.4882 38.4749L24.7424 38.2027C25.2058 37.5483 27.382 33.8161 27.9522 32.883L29.7688 29.8506C29.8692 29.6906 29.9464 29.5994 30.0591 29.4395C30.3948 28.9629 30.3055 28.8534 30.81 28.7856C31.2355 28.7284 31.6834 28.7949 32.1089 28.7313C32.7346 28.6377 33.6267 28.8176 34.1812 28.6847C34.4946 28.6098 34.3556 28.5031 34.7283 28.5289C35.2217 28.563 35.0104 28.7227 35.9803 28.6012C36.4115 28.5472 36.755 28.4718 37.2044 28.4727C37.7272 28.4737 38.0719 28.5587 38.5599 28.5329L39.4873 28.3935C39.6895 28.3717 39.6663 28.4185 39.8659 28.462C40.2732 28.5509 40.5143 28.3037 40.9146 28.2959C41.3838 28.2869 41.5451 28.4709 42.1162 28.3827L46.7392 28.1221C48.2508 28.0024 52.8309 27.6103 53.9258 27.6033L56.5646 27.4187C57.8048 27.2846 59.1929 27.2855 60.4672 27.145L64.3533 26.8549C66.0554 26.6787 67.6746 26.5458 69.3811 26.2972C71.4219 25.9998 73.3771 25.6828 75.3669 25.29C75.7836 25.2078 76.1296 25.0758 76.5296 25.043C75.9263 25.933 75.1874 26.7598 74.5753 27.6484L71.6597 31.5723C69.8404 33.9745 66.4567 39.119 65.1287 41.5785L64.7159 42.3336C64.6262 42.493 64.5904 42.528 64.5007 42.7027C64.2287 43.2326 63.9166 43.5991 63.6872 44.1672C63.4789 44.6831 63.2756 45.2642 63.029 45.785C62.7758 46.3202 62.5149 46.842 62.5176 47.606C62.5221 48.8983 62.9956 49.8606 64.0084 50.6721C64.8749 51.3665 65.9731 51.7373 67.5227 51.7364C68.4149 51.7359 68.8925 51.6996 69.6675 51.5871C72.8053 51.1316 77.2213 49.3808 80.023 48.1506C81.0914 47.6814 82.1449 47.2395 83.1476 46.6431C83.6407 46.3497 83.9794 46.3293 84.6653 45.8744C85.141 45.5591 85.5541 45.2813 86.0324 44.9568L87.2436 43.8272V43.769C87.4015 43.4743 87.6412 43.254 87.8571 42.9793C88.1903 42.5557 88.2792 42.7107 88.4382 42.1577C88.5269 41.8494 88.7224 41.5018 88.8214 41.1406C89.3814 39.099 88.6532 37.479 86.7737 36.5568C84.6387 35.5092 79.9864 36.2524 77.5619 37.2286L77.2949 37.3719C77.6758 37.3406 78.0209 37.1479 78.4134 37.1393C78.3239 37.2161 78.3472 37.199 78.2306 37.2495C77.9131 37.387 77.5207 37.3683 77.0407 37.5871C76.9493 37.6287 76.9331 37.6318 76.849 37.6959C76.3478 38.0774 77.524 37.6099 77.7659 37.6046C77.598 37.8522 77.4271 37.8343 77.082 37.9177C76.7601 37.9954 76.6164 38.1209 76.2942 38.1279C76.3245 38.2409 76.3049 38.2179 76.353 38.3025C76.7017 38.3025 76.8384 38.1924 77.1183 38.1279V38.3025C76.7094 38.3025 76.6852 38.2548 76.7651 38.5932C76.5171 38.6503 76.0255 38.8769 76.6474 38.8258C76.591 38.8742 76.657 38.8242 76.5506 38.9047C76.4874 38.9523 76.4676 38.9644 76.4144 39.0027C76.2674 39.1081 76.3024 39.126 76.1175 39.1748L76.0587 39.2329L75.9998 39.2911C75.9251 39.6396 76.0444 39.5366 76.353 39.4655C76.2372 39.6362 75.9396 39.8768 75.7054 39.9308C75.82 39.7619 75.8245 39.8527 75.8821 39.6399C75.6681 39.3515 75.2796 39.3169 75.058 39.4074C75.1668 39.8103 75.3063 39.4245 75.4822 39.5852C75.7095 39.7928 75.3914 39.9377 75.2934 39.9889V39.6982C75.0928 39.7444 74.9423 39.8093 74.7046 39.8145C74.763 40.0301 74.7641 39.8897 74.8224 40.1052C75.0811 40.0995 75.0058 40.0659 75.2345 40.0471C75.1584 40.3698 75.0482 40.3012 74.5274 40.5698C74.3906 40.6402 74.072 40.7746 73.9819 40.9033C73.9321 40.9744 73.9233 41.064 73.8805 41.1521C73.5847 41.1521 73.5751 41.1585 73.3508 41.2102V41.3847C74.4349 41.3847 73.6418 41.1785 75.1163 40.4537C75.3832 40.3226 75.7629 40.1277 76.065 40.0533C76.7063 39.8952 76.413 39.6454 76.9418 39.5236C77.0097 39.7751 77.0494 39.7564 77.3538 39.7564C76.7807 40.2484 76.9467 40.0122 76.6077 40.0656C76.3965 40.0988 76.4723 40.1389 76.1173 40.1632C75.8457 40.1817 75.8304 40.1694 75.7054 40.3378C75.9793 40.4009 75.9554 40.4037 75.9998 40.5124H75.2934C75.2934 40.8783 75.2776 40.7852 74.7603 41.0906C74.5649 41.206 74.174 41.4017 74.0572 41.5591C73.9773 41.6954 74.2378 41.6155 74.1108 41.7447C73.9876 41.8702 74.0669 41.7004 73.7628 41.6754C73.7628 41.9051 73.7814 41.9114 73.8217 42.0826C74.1217 42.1453 74.0277 42.0509 74.3514 42.0244L74.2854 42.2547C74.7833 42.2586 74.8598 42.0842 75.1676 41.9582C75.4462 41.8442 75.5563 41.8898 75.7635 41.7869L76.0872 41.6341C76.382 41.4508 75.8144 41.6956 76.2381 41.3961C76.4154 41.2707 76.5096 41.1881 76.765 41.1519C78.2103 40.947 77.7895 40.8844 78.1151 40.7337C78.3576 40.6213 78.4158 40.7571 78.59 40.8031C78.8282 40.6456 78.8907 40.4611 79.0609 40.3378C79.4502 40.3698 79.1627 40.5438 79.5302 40.4022C79.7533 40.3162 79.6936 40.26 80.0048 40.2235C80.4153 40.1754 80.8119 40.0471 81.1802 40.0471C81.0932 40.1643 80.9918 40.2362 80.827 40.2797C80.9158 40.3994 80.8425 40.4268 81.1045 40.39C81.641 40.3149 81.1702 39.9266 81.8277 39.8727L81.2406 39.8252L81.5004 39.6716C81.6534 39.6355 81.685 39.6942 81.8899 39.702C82.3381 39.7188 82.0237 39.6546 82.4104 39.5178C82.4732 39.4955 82.475 39.5215 82.593 39.4655C82.597 39.4727 82.6019 39.4779 82.6033 39.4879L82.7697 39.6399C82.3335 39.6399 82.1153 39.5734 82.3576 39.9308C81.9735 39.9392 81.7726 39.99 81.71 40.2215C82.0901 40.2215 82.0657 40.1616 82.3129 40.1193C82.5265 40.0828 82.7489 40.1149 82.9803 40.0807C83.7818 39.9621 84.1461 40.2252 84.2414 39.8727H84.4768C84.4957 40.0967 84.4476 39.9563 84.5438 40.0972C84.6751 40.2893 84.5203 40.1529 84.7123 40.2215C84.6671 40.3889 83.8362 41.2835 83.5323 41.3557C83.2658 41.419 83.051 41.7259 82.7862 41.9872C82.5878 42.1831 82.7012 42.1059 82.4164 42.0826C82.3414 42.2369 82.3627 42.1447 82.3576 42.3733L82.1738 42.1429C81.9902 42.1907 81.9588 42.2667 81.8547 42.3418C81.7219 42.4378 81.6056 42.4741 81.4156 42.4897C81.4667 42.7061 81.5268 42.7413 81.2882 42.8249C81.2611 42.8343 81.0844 42.8669 81.0428 42.8771C80.926 42.9059 80.8963 42.9193 80.8188 42.9468C80.0157 43.2324 80.3831 43.2598 80.0808 43.3808C79.8391 43.4776 79.9951 43.3279 79.1956 43.6695C78.8842 43.8024 78.6422 43.9054 78.3293 44.0349C76.8265 44.6566 77.3263 44.5606 76.9789 44.7379C76.6971 44.8817 76.5805 44.7277 76.3009 44.8188C76.1811 44.8578 76.0357 44.9432 75.9071 45.0151L74.17 45.6834C73.7631 45.8081 73.9404 45.6606 73.2574 45.9449C71.6932 46.5962 72.5794 46.1252 72.0638 46.2727C71.8599 46.331 71.1959 46.7636 70.7625 46.7633C69.8571 46.7626 70.4592 46.7628 69.7836 46.933C69.5668 46.9877 69.4611 46.9516 69.2374 46.975C68.6663 47.0344 68.7315 47.1421 67.5817 47.1421L68.759 44.874C69.2903 43.8234 70.2703 42.1923 70.8897 41.2215L72.753 38.468C73.7523 37.1389 74.6817 35.7467 75.6105 34.3703C76.3381 33.2921 77.3924 32.0754 78.0949 31.0672C78.5577 30.4031 79.8144 28.8958 80.3818 28.1506L82.491 25.5818C82.643 25.4293 82.6558 25.4502 82.7108 25.2174H82.5341C82.5462 24.6863 83.0671 24.5158 83.2846 24.2722L83.7187 23.5955C83.8278 23.3665 83.589 23.1792 84.2841 22.5263C84.5563 22.2704 84.6119 22.3191 84.8427 21.9731L85.5208 20.9565C85.6442 20.6588 85.7446 20.531 85.994 20.2609C86.1353 20.108 86.1861 20.135 86.2429 19.9252L86.0091 20.0447C86.0273 19.8044 86.0443 19.8635 86.139 19.7023C86.3479 19.3465 86.0716 19.4321 86.3476 19.1008C86.7407 18.6286 87.1848 18.3734 87.1848 17.4245C86.9523 17.4245 86.9459 17.4428 86.7727 17.4827C87.0535 16.9047 86.7005 16.8701 86.5372 16.7848C86.5588 16.5281 86.7041 16.3777 86.7727 16.0869C86.5573 16.1437 86.6493 16.1483 86.4784 16.2614C86.4099 16.0576 86.4577 16.144 86.2589 16.2644C86.116 16.351 86.0882 16.3691 85.9408 16.4282C85.714 16.5193 85.4417 16.6224 85.242 16.7267V16.6104C85.068 16.6562 85.1466 16.634 85.0066 16.7267V16.6104C84.8655 16.7037 84.758 16.8103 84.6391 16.9452C84.4888 17.1158 84.4946 17.1796 84.3002 17.3083V17.1337C84.1076 17.2611 84.1169 17.3642 83.8882 17.4245H83.8293C83.656 17.539 83.6126 17.6387 83.4597 17.7619C83.269 17.9156 83.2731 17.828 83.0052 17.8897C83.1328 17.7013 83.2888 17.6235 83.3584 17.3664C83.0573 17.5655 82.8928 17.6373 82.6452 17.9412C82.4454 18.1862 82.0732 18.347 81.71 18.355L82.4164 17.7734C82.0564 17.8563 81.0632 18.3705 80.7319 18.6681C80.4513 18.9202 79.8792 18.8773 79.3916 19.0306C79.1211 19.1157 79.0458 19.1817 78.7319 19.2512C77.3765 19.5511 76.065 20.0109 74.6222 20.3672C72.863 20.8015 70.6053 21.2706 68.8074 21.4849L63.3175 22.0516C63.0574 22.0882 62.7541 22.1279 62.5189 22.135C61.3554 22.1708 57.5328 22.586 56.1712 22.7264L36.7371 24.1147C35.6117 24.1281 34.511 24.1987 33.4381 24.2868C33.71 23.7792 35.0946 21.9548 35.4742 21.4133L40.1349 15.6077L45.4923 10.4322C47.6603 8.52427 49.5797 7.2189 52.2371 6.04579C52.5102 5.9252 52.8312 5.78509 53.1241 5.70077C53.4841 5.59716 53.8162 5.53502 54.1009 5.38624L53.9034 5.23238C53.8957 5.22764 53.8772 5.21991 53.8654 5.21182C54.2319 5.11514 53.7934 5.06951 54.7246 4.951C55.329 4.87407 54.6974 5.08695 55.6316 4.805C56.5275 4.53448 55.9158 4.79195 56.3331 4.50317C56.9421 4.08168 58.0503 4.40384 58.2711 4.38975C58.6001 4.36884 58.9575 4.30785 59.3942 4.35151C59.9622 4.40846 59.5693 4.22249 60.2566 4.36364C60.5731 4.42855 60.9126 4.56521 61.2239 4.57214C61.0361 4.44323 61.0266 4.54984 60.8707 4.3395C61.0943 4.23346 61.0066 4.28764 61.2491 4.3149C61.6538 4.36052 61.3915 4.2978 61.6573 4.25726C62.064 4.19534 62.5001 4.80465 64.0495 4.80465C64.0495 4.38605 64.0093 4.62608 63.9318 4.3395C64.0658 4.40291 64.2321 4.43641 64.429 4.36849C64.5449 4.32852 64.607 4.37277 64.6971 3.99055C65.037 4.15168 65.1933 4.27539 65.4624 4.28128L65.2269 3.99055H65.4035C65.2539 3.76981 64.9676 3.53348 64.7642 3.28456C64.6583 3.15484 64.583 3.07213 64.4712 2.93422C64.3275 2.75691 64.2166 2.74051 64.1084 2.59473L64.3416 2.66011C64.1938 2.44792 64.2448 2.56886 63.9524 2.40011C63.8318 2.33045 63.8906 2.36972 63.8141 2.304V2.2459L62.7545 1.72241L63.1666 1.60621L62.5229 1.42787C62.3996 1.3834 62.4765 1.42059 62.4013 1.37358C62.7016 1.37358 62.4989 1.37439 62.5778 1.31536C62.2601 1.24224 61.9288 1.11634 61.5905 1.01134C61.3673 0.942035 60.8274 0.797189 60.694 0.617457C60.9955 0.617457 61.1963 0.699698 61.4935 0.758261C61.7633 0.811511 62.0882 0.8874 62.3424 0.908307C62.1751 0.764614 62.0919 0.837154 61.707 0.605443C61.0026 0.181526 58.496 0.238355 58.444 0.225996C58.1363 0.152185 58.0191 0.120767 57.6599 0.0675178C56.353 -0.126306 55.8052 0.159462 54.9846 0.152993C54.1037 0.145947 53.4662 0.338154 52.5951 0.583842C50.4757 1.18172 49.2195 1.94615 47.4301 2.92532C47.2125 3.04441 47.0535 3.17448 46.8572 3.28999C45.7516 3.9403 43.7801 5.47645 42.8164 6.27658L37.2785 11.5646L35.9612 13.0546C35.8022 13.2492 35.6919 13.3592 35.5325 13.5616C34.751 14.5538 33.8648 15.5394 33.0174 16.66C31.4397 18.7468 29.7745 21.0578 28.4002 23.2646C28.2662 23.4799 28.1852 23.6366 28.0465 23.8456C27.8848 24.0892 27.8046 24.2082 27.6691 24.4614C27.2157 24.4614 26.7146 24.4316 26.2902 24.495C25.8235 24.5648 25.3936 24.4781 24.961 24.5777C24.909 24.694 24.9337 24.5358 24.9852 24.6701C25.036 24.802 25.065 24.6264 25.02 24.7521C24.7387 24.7521 24.4864 24.7528 24.2093 24.7336C23.8624 24.7097 24.172 24.7105 23.9287 24.7752L21.8414 24.9269C20.6891 24.9883 19.503 24.9141 18.418 25.0344C17.8479 25.0977 17.2443 24.9839 16.6855 25.0674C16.1844 25.1424 15.4886 25.0969 15.0037 25.1507C14.7519 25.1787 14.3917 25.1602 14.1289 25.1588L12.4208 25.216C12.0441 25.2145 11.9377 25.2755 11.598 25.2755L12.1866 25.3918C11.6299 25.3918 11.3912 25.472 10.9504 25.5081V25.6244C11.2209 25.6304 11.2579 25.6827 11.8924 25.6827C11.7875 25.7726 11.794 25.7934 11.5994 25.8008L10.4206 25.6827Z" fill="#00868a"/>
<path fill-rule="evenodd" clip-rule="evenodd" d="M61.3417 45.4557C61.2923 45.4979 61.2445 45.5404 61.1776 45.5843C61.1036 45.633 61.0595 45.6511 60.9885 45.6883C61.0428 45.4873 61.0908 45.4762 61.3417 45.4557ZM49.3326 39.1166C49.2138 39.2026 49.1411 39.3027 49.0971 39.4656C48.894 39.412 48.9106 39.232 48.4365 39.5106C47.9515 39.7957 48.0897 39.8491 47.802 39.8728C47.7586 40.3885 47.3705 40.5706 46.8013 40.5706C46.7227 40.7323 46.7424 40.6832 46.7424 40.9195C46.2082 40.9634 46.3638 41.0734 46.2125 41.3848C45.9649 41.3194 46.0373 41.2076 45.8528 41.429C45.4876 41.8671 45.7396 41.3619 45.0496 42.0387C44.9065 42.179 44.7936 42.2363 44.7408 42.4315C44.7804 42.4211 44.8533 42.387 44.8651 42.3839C45.0072 42.3466 44.8691 42.3265 44.9763 42.3734C44.8527 42.5401 44.9222 42.4045 44.7006 42.5662C44.6753 42.5847 44.6288 42.6263 44.6063 42.6475C44.4671 42.7786 44.4258 42.8518 44.2699 42.955C44.3148 42.5494 44.408 43.0052 44.4465 42.5478C44.2744 42.5072 44.3617 42.5553 44.2699 42.4315C44.7717 42.316 44.8028 41.893 44.235 42.2205C43.9153 42.4047 43.7381 42.5789 43.4899 42.8241C43.1248 43.1849 43.1001 43.1548 42.9351 43.5464C42.8947 43.6423 43.0173 43.5444 42.8232 43.6738L42.1507 44.06C42.2863 43.8599 42.4414 43.8255 42.5038 43.5947C42.2532 43.6152 42.0218 43.8276 41.8556 43.9429C41.3345 44.3044 41.4941 44.1285 41.5031 44.5251C41.3631 44.5573 41.1444 44.5724 41.0049 44.6145C40.5179 44.7619 41.0279 44.9287 40.6458 44.9136C40.4488 44.9058 40.2206 45.0302 40.0749 45.1497C39.5844 45.5516 38.996 45.7812 38.6618 46.0799L38.2352 46.3979C38.0248 46.5032 38.1118 46.2996 38.0888 46.5606C37.9114 46.5138 37.9595 46.5613 37.9121 46.3862C37.6058 46.4113 37.3893 46.5433 37.3823 46.8513C37.2568 46.8617 37.1219 46.8886 36.982 46.9211C36.6613 46.9955 36.655 47.1304 35.9862 47.3913C35.4555 47.5983 34.8824 47.7483 34.7921 48.1308C34.5068 48.1245 34.483 48.0387 34.2265 48.1498C34.08 48.2133 33.8915 48.4123 33.7995 48.3761C33.4855 48.2522 35.1247 46.4233 35.221 46.3446L37.1331 44.5698C37.2712 44.4578 37.3817 44.3736 37.5352 44.2691L38.8657 43.3735C39.462 42.9783 40.0718 42.6532 40.7038 42.2816C41.6084 41.7497 43.6746 40.73 44.6477 40.3623C45.0383 40.2147 45.366 40.1491 45.765 40.0122C45.9198 39.959 46.4075 39.8158 46.4628 39.6766C46.5993 39.3332 46.3008 39.8378 46.448 39.4656C46.5073 39.4025 47.1574 39.4045 47.4116 39.2577C47.4773 39.2198 47.4728 39.2683 47.4548 39.1375L47.8438 38.9202C48.2954 38.7969 47.6686 39.1134 48.7997 38.9392C49.1559 38.8842 48.9014 38.8341 49.2736 38.8259C49.3244 38.9391 49.2807 38.7824 49.2644 38.9063C49.2083 39.3341 49.2002 38.7222 49.3326 39.1166ZM61.3417 45.4557C61.5123 45.2256 61.4987 45.3908 61.4594 45.2811C61.3798 45.244 61.4708 45.2682 61.367 45.2681C61.3316 45.2679 61.2195 45.28 61.1651 45.2811C61.2209 45.0444 61.2831 44.8845 61.1651 44.6414C61.3533 44.5169 61.2063 44.546 61.4594 44.5251C61.1401 44.0542 60.904 44.0834 61.2828 43.8854C61.2828 44.1302 61.2581 44.1204 61.3417 44.2925C61.4975 44.2304 61.4514 44.4121 61.4594 44.06C61.631 44.1735 61.6412 44.2272 61.8715 44.1181C61.8171 43.9171 61.7692 43.9061 61.5183 43.8854C61.5309 43.7356 61.469 43.6923 61.9257 43.4156C62.2469 43.2212 62.1446 43.4061 62.2247 43.1875C61.8934 43.0305 61.7076 43.2903 61.4835 43.4439C61.247 43.606 60.9482 43.7152 60.8707 44.0017C60.6502 43.8865 60.5282 43.9099 60.4586 43.6528C60.6625 43.6059 60.9023 43.5834 61.1062 43.5365C61.1508 43.4368 61.1765 43.5852 61.0981 43.4664C61.0951 43.4619 61.0844 43.4464 61.0805 43.4415C61.0758 43.4356 61.0602 43.4211 61.055 43.4155L60.9885 43.3621C61.1475 43.3751 61.1486 43.3893 61.2828 43.4202C61.2828 42.8976 61.3031 43.2966 61.6151 42.9921C61.7167 42.893 61.6308 42.966 61.6911 42.8902L61.9664 42.6741C61.9693 42.6727 61.982 42.6681 61.9892 42.6641V42.4315L61.9303 42.3734C61.6171 42.1149 62.001 42.413 61.5183 42.3734V42.1408C61.2976 42.1916 61.1102 42.2095 60.8742 42.2604C60.3919 42.3647 60.8719 42.4959 60.1061 42.6067C59.7768 42.6544 59.8502 42.7008 59.8148 42.7259C59.3811 43.0342 59.4327 42.6713 59.399 43.0712C59.2354 43.0281 59.2977 43.0162 59.2412 43.007C59.2337 43.0057 59.2162 43.0022 59.2088 43.0021C59.2019 43.002 59.1853 43.0032 59.1785 43.0042L58.7897 43.1668C58.5176 43.2573 58.3568 43.3953 58.2216 43.5947C58.3806 43.5816 58.3818 43.5674 58.516 43.5365C58.3904 43.7058 58.5 43.5725 58.3801 43.6349C57.9062 43.8814 58.2112 43.7558 57.9274 43.9436C57.8421 43.5463 58.0492 43.9349 57.9996 43.6261L57.9274 43.4784C58.1325 43.4242 58.1428 43.4247 58.1628 43.1875L57.5653 43.4285C56.8833 43.8351 57.2948 43.4691 57.0105 43.8559C56.7655 44.1893 57.0295 43.8135 56.6322 44.0017C56.7724 44.1907 56.6583 44.1216 56.9266 44.06V44.1763C56.4402 44.1869 56.8242 44.3399 56.3378 44.3507C56.5028 44.1283 56.493 44.3425 56.5734 44.0017C56.39 44.0439 56.2404 44.101 56.0966 44.1705C55.8785 44.276 55.8669 44.2696 55.8669 44.5833H55.3372C55.3076 44.9176 55.4727 44.5946 54.8486 44.8559C54.499 45.0024 54.0053 45.237 53.7064 45.4778C53.5063 45.639 53.6339 45.5707 53.4566 45.6207L53.3972 45.6365C53.2578 45.6401 53.2939 45.5771 53.2767 45.5139C53.1579 45.5236 53.2164 45.515 53.1294 45.5454C52.7976 45.6611 52.902 45.7626 52.9235 45.8627C52.1302 45.8627 52.7071 45.9131 51.901 46.1902C51.715 46.2542 51.6114 46.2941 51.4327 46.3672C51.2041 46.4607 51.1205 46.4744 51.0986 46.735C50.837 46.7135 50.8221 46.615 50.5688 46.735C50.7831 45.8262 53.3484 42.2726 53.5681 41.7223C53.7344 41.3056 53.5561 41.7232 53.5122 41.3266C53.5451 41.3048 53.5789 41.2925 53.6204 41.259C53.9428 40.9978 53.7915 40.7418 53.8262 40.5324C53.9065 40.0475 54.1276 40.5891 54.33 39.6919C54.4102 39.3362 54.4784 39.4009 54.6307 39.1166C53.9518 39.2587 54.9035 38.165 54.5129 37.779C54.3802 37.6479 54.3438 37.9002 54.1275 37.4621C54.1049 37.4166 54.0479 37.3208 54.0176 37.2798C53.896 37.1148 53.9283 37.2067 53.8348 36.9952C53.7869 36.8867 53.8233 36.9317 53.7638 36.8327C53.7456 36.8027 53.6741 36.7336 53.6299 36.6741C53.1355 36.7879 53.2272 36.876 52.8322 36.7816C52.5027 36.7029 52.8162 36.7094 52.5703 36.616C52.5101 36.7048 52.4469 36.7987 52.3505 36.8471C52.2669 36.8889 52.2129 36.8508 52.0405 36.9649C51.7887 36.8201 52.2424 37.0368 51.9439 36.9396C51.9047 36.9269 51.8968 36.9327 51.8496 36.9055C51.755 36.8506 51.7517 36.8145 51.68 36.741C51.671 36.7316 51.6592 36.7191 51.6499 36.7099L51.4909 36.5684C51.3009 36.3339 51.6743 36.5208 51.4104 36.3157C51.0654 36.0473 51.4454 36.1999 51.0957 36.0411C50.565 35.8 50.8147 35.9226 50.8425 35.8663C50.8514 35.8484 51.076 35.8154 50.5615 35.6954C50.3201 35.639 50.0757 35.5691 49.8035 35.5691V35.511C50.1414 35.511 50.2504 35.5691 50.6277 35.5691C50.4754 35.3639 50.6768 35.5206 50.4082 35.4371C50.333 35.4138 50.1895 35.3896 50.0759 35.3582C49.5403 35.2102 49.6565 35.2109 49.568 35.0458C49.911 35.0739 50.1612 35.1621 50.5688 35.1621L50.2672 34.9948C49.8608 34.7261 49.6552 34.795 48.9158 34.8092C48.376 34.8196 48.6256 35.0168 48.1827 34.7882C47.1654 34.263 44.6418 35.0602 43.925 35.3448C41.0441 36.4885 36.2074 39.197 33.6011 41.313L32.2953 42.4657C31.1213 43.7064 30.7792 44.1579 29.8505 45.6915C29.3096 46.5845 28.8468 47.294 28.5631 48.4324C28.146 50.1062 28.3442 51.9193 29.8486 52.7818C30.2639 53.0199 30.8254 53.2005 31.4348 53.2503C33.5799 53.4258 35.2224 52.6793 37.0091 51.833L39.0899 50.8064C39.3058 50.695 39.5209 50.5676 39.7371 50.4571C40.1544 50.2436 41.733 49.3812 41.9216 49.1258C42.0583 48.9406 41.8999 49.0137 42.1724 48.8498C42.2956 48.7756 42.4267 48.7505 42.4953 48.6626C42.4999 48.6569 42.5075 48.6414 42.5112 48.6351C42.6715 48.3669 42.3344 48.6626 42.9499 48.2226L45.094 46.735C45.0463 46.9376 44.9669 47.0325 44.878 47.2195C44.7945 47.3947 44.7446 47.5379 44.6728 47.7147C43.248 51.2205 45.4745 54.0287 49.923 52.0871C50.267 51.937 50.5901 51.8074 50.9424 51.6403C52.7089 50.8027 54.6177 49.7669 56.3039 48.9657C56.5953 48.8272 56.614 48.8408 56.3967 48.6542C56.911 48.6542 56.7657 48.539 57.0308 48.35L61.1864 46.0002C61.2893 45.9217 61.2291 45.9671 61.2828 45.9209L60.9315 45.9879C61.0702 45.7896 60.9173 45.9526 61.0695 45.8845L61.2433 45.8215C61.5402 45.6479 61.3435 45.4585 61.3417 45.4557Z" fill="#00868a"/>
<path fill-rule="evenodd" clip-rule="evenodd" d="M98.5464 51.62C98.3549 51.7401 97.6908 51.8527 97.4868 51.8527C97.5132 51.5389 97.5254 51.6661 97.8958 51.679C98.2222 51.6904 98.2383 51.62 98.5464 51.62ZM98.5464 51.62C98.6253 51.5611 98.4226 51.5619 98.723 51.5619C98.651 51.6156 98.7892 51.5996 98.5464 51.62ZM96.8392 42.6059C96.9331 42.4676 97.0259 42.3955 97.1325 42.2558C97.2697 42.0759 97.2824 42.0371 97.5365 41.9571C97.8142 41.8698 97.7786 41.9161 98.0428 41.7595C98.2076 41.6619 98.3466 41.5855 98.4901 41.5035C99.8453 40.7303 101.411 40.1752 102.887 39.6826C103.324 39.5366 104.176 39.2911 104.61 39.2911C104.159 39.956 101.725 40.7912 100.894 41.0865L97.5083 42.2201C97.1634 42.3954 97.4381 42.5928 96.8392 42.6059ZM93.3072 47.4328V47.5491C93.6519 47.5491 93.8414 47.4909 94.2491 47.4909C94.2372 47.4991 94.2176 47.4952 94.2118 47.5123C94.2058 47.5294 94.1824 47.5293 94.1741 47.5332C93.9419 47.6418 93.6722 47.6782 93.4837 47.8399C94.5078 47.8399 93.5261 48.1714 95.1562 47.51C95.5854 47.3359 95.544 47.6136 95.9851 47.5747C96.3673 47.5409 96.601 47.4335 96.9215 47.3396C97.3292 47.2203 97.7725 47.3315 98.8764 47.061C99.7867 46.838 100.535 46.5033 101.389 46.17L103.761 45.1402C104.049 45.0225 104.229 44.8999 104.517 44.7822C104.81 44.6626 105.008 44.5741 105.296 44.447C107.154 43.6289 107.889 43.4665 109.511 41.8644C109.901 41.4789 110.237 41.1375 110.565 40.6959C110.746 40.4517 110.829 40.2856 110.993 40.0137C111.84 38.6021 111.871 37.1213 110.808 35.7848C110.458 35.3444 110.024 35.0451 109.516 34.7932C107.736 33.9101 105.547 34.2303 103.653 34.6242C102.451 34.8741 101.231 35.2776 100.194 35.6848C98.1173 36.5001 95.9883 37.4413 94.181 38.7586C93.3252 39.3823 92.452 40.0393 91.7027 40.7883C89.7423 42.7477 88.013 44.8846 87.2548 47.6182C87.0814 48.2432 87.0671 48.9103 87.0671 49.701L87.2253 49.3338C87.2291 49.3249 87.2358 49.3061 87.2437 49.2938C87.2437 49.7035 87.2251 50.1976 87.3863 50.5488L87.9941 51.4603C88.3137 51.8122 88.6629 52.0808 89.0709 52.3157C89.3092 52.4528 89.5143 52.513 89.7823 52.6015C90.3203 52.7794 90.8364 52.8645 91.4391 52.9421C92.5421 53.0841 94.2236 52.8858 95.1576 52.7502C95.5569 52.6922 98.0935 52.315 98.4287 52.0272L97.7811 51.969C98.1682 51.969 98.771 51.9895 98.7818 51.5037C98.9551 51.4638 98.9615 51.4456 99.194 51.4456C99.0186 51.209 98.8196 51.365 98.5464 51.3874L98.4633 51.1231C98.4573 51.1173 98.4396 51.1061 98.4287 51.0967C98.7298 51.1214 98.5084 51.1408 98.7818 51.213C99.0749 50.6097 99.4081 50.4188 99.4294 50.1661C99.1215 50.1402 99.323 50.2217 99.2529 50.0498C99.4328 49.9308 99.6572 49.8151 99.9003 49.7591C99.8284 49.9554 99.7398 49.8695 99.6061 50.0498C99.7832 50.2887 100.298 50.2266 100.548 50.108C100.523 49.8784 100.59 49.9937 100.412 49.8933C100.385 49.8781 100.173 49.8258 100.136 49.8173C100.211 49.5375 100.199 49.709 100.484 49.5796C100.724 49.4708 101.048 49.2907 101.332 49.2539C101.657 49.2118 101.698 49.3261 101.725 49.003C101.044 49.003 99.6811 49.5482 99.0789 49.8837C98.8351 50.0195 98.511 49.8888 98.4287 49.5845C98.6057 49.5701 98.8301 49.5016 98.9725 49.4822C99.1973 49.4515 99.4361 49.4683 99.6649 49.4683C99.5973 49.1894 99.6248 49.3779 99.6649 49.2938C99.8516 49.2938 99.9466 49.2886 100.079 49.2329C100.137 49.2085 100.163 49.1996 100.207 49.1448L100.254 49.003C100.957 49.003 100.966 48.8308 101.137 48.4797C101.287 48.5794 101.618 48.7891 101.456 48.412C101.399 48.281 101.368 48.304 101.233 48.2105C100.832 47.933 100.766 47.8895 100.217 47.978C100.018 48.0101 99.5722 48.0708 99.4644 48.1646C99.3429 48.27 99.276 48.4234 99.1209 48.4656C98.9347 48.5162 98.4737 48.4583 98.2514 48.4791C98.0434 48.4985 98.091 48.5193 97.9439 48.5861C97.6492 48.7198 97.8662 48.6175 97.5954 48.604C97.1148 48.5799 97.4728 48.8172 96.957 48.8285C96.8976 48.6831 97.0818 48.7151 96.7947 48.725C96.6879 48.7287 96.6186 48.8104 96.5584 48.833C96.3895 48.8967 96.2135 48.8162 96.0192 48.8286C95.8368 48.8404 95.6516 48.9016 95.4918 48.9513C95.3022 49.0103 95.1232 49.0307 95.0144 49.1775L95.2396 49.1875C95.2543 49.1905 95.2726 49.1968 95.2856 49.2003C95.2981 49.2036 95.3179 49.2139 95.3277 49.217C95.3373 49.22 95.3552 49.2278 95.3675 49.2357C95.0175 49.2644 94.7094 49.2309 94.3668 49.4101C94.0264 49.2986 94.4628 49.4087 94.2471 49.3245C94.1396 49.2826 94.1651 49.2938 94.0136 49.2938V49.2357C94.4066 49.2357 94.6875 49.3237 94.4845 48.9448C94.884 48.9448 94.905 49.0184 95.0732 48.7704C94.8798 48.6787 94.3692 48.8059 94.1135 48.7845C93.7883 48.7576 93.4097 48.864 93.118 48.9325C92.7069 49.0289 92.765 48.929 92.6007 49.2357C92.2342 49.062 91.9224 49.3003 91.6589 48.9448C91.7023 48.9448 91.7935 48.949 91.8334 48.9429L92.012 48.8867C91.5339 48.8475 91.3246 48.8844 91.4406 48.3425C91.5071 48.0314 91.7022 48.3898 91.5999 47.9562C91.9089 48.0273 91.8021 48.0545 91.9835 47.7523C92.1887 47.4105 92.1014 47.6197 92.0709 47.2584C92.5798 47.2584 92.1992 47.3156 92.8951 47.2584L92.8895 47.3611C92.8878 47.4386 92.8114 47.2907 92.8951 47.4909C93.1238 47.4722 93.0485 47.4385 93.3072 47.4328Z" fill="#00868a"/>
<path fill-rule="evenodd" clip-rule="evenodd" d="M112.792 52.0854C112.802 52.0908 112.82 52.0834 112.824 52.094L112.887 52.0981C112.894 52.0963 112.912 52.0921 112.92 52.0893C112.959 52.0743 113.024 52.0108 113.087 51.9691L113.021 52.1994C113.292 52.1319 113.14 52.1743 113.264 51.97C113.483 51.6108 113.433 51.9612 113.677 51.4468L113.852 51.0967V51.562H114.029L114.205 51.2131V51.6782C114.448 51.403 114.592 50.6413 114.761 50.4247C115.024 50.0875 114.795 50.6288 115.571 49.3633C116.165 48.3939 116.898 46.6867 117.77 45.2557C118.103 44.7097 118.401 44.2516 118.772 43.7445L119.581 42.6824C120.192 41.9365 121.035 41.1104 121.858 40.5703C122.857 39.915 123.346 39.7352 124.507 39.465C124.83 39.3896 125.208 39.3357 125.563 39.2878C126.981 39.0964 130.006 38.6907 131.277 38.6513C132.053 38.6272 133.951 38.3711 134.75 38.3603L139.458 38.0102C139.926 37.9988 140.221 37.9536 140.696 37.9536C140.785 37.7536 140.57 37.9655 140.637 37.779C141.062 37.7884 140.868 37.9297 141.327 37.7645C141.632 37.6547 143.071 37.5661 143.461 37.5448L147.396 37.1288C147.734 37.0908 148.046 37.0812 148.466 37.0812C148.491 37.0136 148.467 37.066 148.466 37.023C148.466 36.9801 148.442 37.0326 148.466 36.9649C149.129 36.9649 148.651 36.752 149.138 37.0566C149.396 37.2181 149.681 37.2059 149.762 36.9067C149.447 36.9067 149.247 36.848 148.996 36.7904C149.109 36.5158 149.257 36.8826 149.173 36.616C148.999 36.5334 149.009 36.5577 148.761 36.5577C148.905 36.3457 148.895 36.5048 148.82 36.3252C148.736 36.3444 148.676 36.354 148.597 36.3957C148.585 36.4017 148.571 36.4113 148.56 36.4178C148.549 36.4242 148.537 36.4357 148.526 36.4424C148.276 36.6049 148.313 36.5577 147.878 36.5577L148.807 36.2545C148.936 36.2156 148.957 36.1867 149.114 36.1507C149.101 35.9965 149.007 35.9401 149.295 35.8104C149.468 35.7328 149.626 35.6433 149.82 35.6273C149.873 35.8225 149.983 35.8734 150.527 35.9181C150.516 35.4193 150.462 35.926 150.35 35.511H151.292C151.201 35.4324 151.231 35.4498 151.106 35.4038C150.687 35.249 150.454 35.4079 150.277 35.4388C150.074 35.4744 149.849 35.4536 149.641 35.4563C149.302 35.4609 149.239 35.5243 149.173 35.2784C149.348 35.0419 149.492 35.24 150.305 35.119C150.555 35.0818 150.733 35.0968 150.947 35.0541C151.327 34.9787 151.225 34.9742 151.469 34.8131C151.371 34.6114 151.431 34.5555 151.196 34.4427C150.732 34.2197 149.446 34.1243 148.892 34.1916C148.596 34.2276 148.587 34.1553 148.357 34.1835C148.017 34.225 148.346 34.337 147.876 34.2406C147.6 34.1842 147.57 34.1734 147.23 34.1734C147.177 34.0674 147.185 34.1006 147.171 33.9408H147.054C147.121 34.2196 147.094 34.0312 147.054 34.1153H146.759C146.892 33.9359 147.122 33.8932 146.642 33.8826C146.426 33.9498 146.687 34.226 146.031 34.0839C145.772 34.0279 144.729 34.0328 144.4 34.111C144.057 34.1928 144.229 34.3317 143.764 34.2904C143.531 34.2697 143.567 34.2316 143.286 34.2316C143.381 34.1719 143.53 34.187 143.58 33.9989C142.866 33.9989 142.559 33.8876 142.521 34.2316C142.1 34.2316 142.217 34.1713 141.97 34.1262C141.663 34.0696 141.698 34.1719 141.52 34.2897C141.468 34.1616 141.523 34.1152 140.934 34.1127L139.432 34.1464C138.134 34.3551 139.097 34.3054 138.17 34.1681C137.095 34.0088 136.958 34.3964 136.061 34.2739C135.401 34.1837 135.203 34.1912 134.701 34.3572C134.255 34.5045 132.368 34.3672 131.767 34.335C130.177 34.25 125.824 34.4802 124.406 34.6556C122.541 34.8861 120.923 35.2003 119.565 35.9788L117.737 37.1976C116.412 38.2203 114.667 40.119 113.688 41.5713C112.527 43.2915 112.301 43.6743 111.345 45.3635C111.222 45.5814 111.12 45.701 111.132 45.8859C111.14 46.013 111.191 45.8949 111.113 46.0608C111.012 46.2782 110.786 46.6651 110.765 46.8819C110.734 47.2183 110.753 46.83 110.811 47.1117C110.841 47.258 110.784 47.7742 110.691 47.9154C110.48 48.2352 110.51 47.8146 110.319 48.5372C110.176 49.0781 110.29 48.9753 110.163 49.785C110.114 50.0948 110.142 50.2583 110.438 50.2825C109.776 51.5181 110.722 51.5399 111.336 51.8956C111.686 52.0983 111.565 52.1567 111.556 52.5507C111.785 52.4902 111.776 52.3872 111.968 52.2598C111.976 52.5995 112.093 52.6567 112.337 52.4566C112.567 52.2685 112.481 52.2479 112.792 52.0854Z" fill="#00868a"/>
<path fill-rule="evenodd" clip-rule="evenodd" d="M5.94655 28.5322L5.96388 28.5149C5.96273 28.516 5.94066 28.5264 5.94655 28.5322Z" fill="#00868a"/>
<path fill-rule="evenodd" clip-rule="evenodd" d="M73.5273 42.6059L73.5447 42.5886C73.5435 42.5897 73.5216 42.6002 73.5273 42.6059Z" fill="#00868a"/>
<path fill-rule="evenodd" clip-rule="evenodd" d="M8.47802 26.4967L8.49546 26.4794C8.49419 26.4805 8.47224 26.4909 8.47802 26.4967Z" fill="#00868a"/>
<path fill-rule="evenodd" clip-rule="evenodd" d="M61.9892 44.6415L62.0066 44.6241C62.0054 44.6253 61.9835 44.6357 61.9892 44.6415Z" fill="#00868a"/>
<path fill-rule="evenodd" clip-rule="evenodd" d="M46.2715 40.6868L46.2888 40.6694C46.2876 40.6706 46.2657 40.681 46.2715 40.6868Z" fill="#00868a"/>
<path fill-rule="evenodd" clip-rule="evenodd" d="M69.2299 45.5138L69.2474 45.4963C69.2462 45.4975 69.2243 45.5079 69.2299 45.5138Z" fill="#00868a"/>
<path fill-rule="evenodd" clip-rule="evenodd" d="M0.000931072 78.9532L0.018373 78.9359C0.0172179 78.9371 -0.00472886 78.9475 0.000931072 78.9532Z" fill="#00868a"/>
<path fill-rule="evenodd" clip-rule="evenodd" d="M51.3928 36.209L51.4103 36.1917C51.4091 36.1927 51.387 36.2032 51.3928 36.209Z" fill="#00868a"/>
<path fill-rule="evenodd" clip-rule="evenodd" d="M61.8716 44.3507L61.8889 44.3334C61.8877 44.3345 61.8658 44.3449 61.8716 44.3507Z" fill="#00868a"/>
<path fill-rule="evenodd" clip-rule="evenodd" d="M3.65087 78.6042L3.6682 78.5869C3.66704 78.5881 3.64509 78.5985 3.65087 78.6042Z" fill="#00868a"/>
<path fill-rule="evenodd" clip-rule="evenodd" d="M150.409 36.0924L150.427 36.0752C150.425 36.0762 150.403 36.0867 150.409 36.0924Z" fill="#00868a"/>
<path fill-rule="evenodd" clip-rule="evenodd" d="M72.6443 41.5591C72.6404 41.5629 72.6428 41.5697 72.6431 41.5751L72.6443 41.5591Z" fill="#00868a"/>
<path fill-rule="evenodd" clip-rule="evenodd" d="M72.1733 41.0356C72.1695 41.0395 72.1718 41.0463 72.1722 41.0517L72.1733 41.0356Z" fill="#00868a"/>
<path fill-rule="evenodd" clip-rule="evenodd" d="M83.4173 17.3082L83.3584 17.3663L83.4173 17.3082Z" fill="#00868a"/>
<path fill-rule="evenodd" clip-rule="evenodd" d="M1.88488 74.4171L1.81714 74.5305L1.88488 74.4171Z" fill="#00868a"/>
<path fill-rule="evenodd" clip-rule="evenodd" d="M6.18238 26.4967L6.05566 26.5287L6.18238 26.4967Z" fill="#00868a"/>
<path fill-rule="evenodd" clip-rule="evenodd" d="M3.70983 70.1716L3.64209 70.2851L3.70983 70.1716Z" fill="#00868a"/>
<path fill-rule="evenodd" clip-rule="evenodd" d="M86.3607 19.809L86.3018 19.8671L86.3607 19.809Z" fill="#00868a"/>
<path fill-rule="evenodd" clip-rule="evenodd" d="M101.136 51.271L101.263 51.239L101.136 51.271Z" fill="#00868a"/>
<path fill-rule="evenodd" clip-rule="evenodd" d="M2.88562 72.1489L2.81787 72.2624L2.88562 72.1489Z" fill="#00868a"/>
</svg>
