<svg width="40" height="41" viewBox="0 0 40 41" fill="none" xmlns="http://www.w3.org/2000/svg">
<g clip-path="url(#clip0_211_2658)">
<path d="M7.425 1.55833C7.65972 1.26563 7.95109 1.03063 8.27909 0.86951C8.60708 0.708391 8.9639 0.624975 9.325 0.625H30.675C31.0361 0.624975 31.3929 0.708391 31.7209 0.86951C32.0489 1.03063 32.3403 1.26563 32.575 1.55833L39.0975 9.67567C39.6799 10.4006 40 11.3237 40 12.2783V12.9583C40.0001 14.2783 39.6136 15.5653 38.8945 16.6395C38.1754 17.7136 37.1597 18.5213 35.9892 18.9497C34.8187 19.378 33.552 19.4055 32.3662 19.0284C31.1803 18.6513 30.1345 17.8884 29.375 16.8463C28.8204 17.6084 28.1096 18.2249 27.2971 18.6488C26.4846 19.0726 25.592 19.2925 24.6875 19.2917C23.783 19.2927 22.8903 19.0729 22.0778 18.6491C21.2653 18.2252 20.5545 17.6085 20 16.8463C19.4455 17.6085 18.7347 18.2252 17.9222 18.6491C17.1097 19.0729 16.217 19.2927 15.3125 19.2917C14.408 19.2927 13.5153 19.0729 12.7028 18.6491C11.8903 18.2252 11.1795 17.6085 10.625 16.8463C9.86548 17.8884 8.81971 18.6513 7.63384 19.0284C6.44798 19.4055 5.18129 19.378 4.01081 18.9497C2.84033 18.5213 1.82456 17.7136 1.10546 16.6395C0.386355 15.5653 -0.000136496 14.2783 3.61614e-08 12.9583V12.2783C3.15188e-05 11.3237 0.320142 10.4006 0.9025 9.67567L7.4275 1.55567L7.425 1.55833ZM11.875 12.9583C11.875 13.9308 12.2372 14.8634 12.8818 15.5511C13.5265 16.2387 14.4008 16.625 15.3125 16.625C16.2242 16.625 17.0985 16.2387 17.7432 15.5511C18.3878 14.8634 18.75 13.9308 18.75 12.9583C18.75 12.6047 18.8817 12.2656 19.1161 12.0155C19.3505 11.7655 19.6685 11.625 20 11.625C20.3315 11.625 20.6495 11.7655 20.8839 12.0155C21.1183 12.2656 21.25 12.6047 21.25 12.9583C21.25 13.9308 21.6122 14.8634 22.2568 15.5511C22.9015 16.2387 23.7758 16.625 24.6875 16.625C25.5992 16.625 26.4735 16.2387 27.1182 15.5511C27.7628 14.8634 28.125 13.9308 28.125 12.9583C28.125 12.6047 28.2567 12.2656 28.4911 12.0155C28.7255 11.7655 29.0435 11.625 29.375 11.625C29.7065 11.625 30.0245 11.7655 30.2589 12.0155C30.4933 12.2656 30.625 12.6047 30.625 12.9583C30.625 13.9308 30.9872 14.8634 31.6318 15.5511C32.2765 16.2387 33.1508 16.625 34.0625 16.625C34.9742 16.625 35.8485 16.2387 36.4932 15.5511C37.1378 14.8634 37.5 13.9308 37.5 12.9583V12.2783C37.5 11.9605 37.3936 11.6532 37.2 11.4117L30.675 3.29167H9.325L2.8 11.4117C2.60637 11.6532 2.49998 11.9605 2.5 12.2783V12.9583C2.5 13.9308 2.86216 14.8634 3.50682 15.5511C4.15148 16.2387 5.02582 16.625 5.9375 16.625C6.84918 16.625 7.72352 16.2387 8.36818 15.5511C9.01284 14.8634 9.375 13.9308 9.375 12.9583C9.375 12.6047 9.5067 12.2656 9.74112 12.0155C9.97554 11.7655 10.2935 11.625 10.625 11.625C10.9565 11.625 11.2745 11.7655 11.5089 12.0155C11.7433 12.2656 11.875 12.6047 11.875 12.9583ZM3.75 20.625C4.08152 20.625 4.39946 20.7655 4.63388 21.0155C4.8683 21.2656 5 21.6047 5 21.9583V37.9583H7.5V24.625C7.5 23.9178 7.76339 23.2395 8.23223 22.7394C8.70107 22.2393 9.33696 21.9583 10 21.9583H17.5C18.163 21.9583 18.7989 22.2393 19.2678 22.7394C19.7366 23.2395 20 23.9178 20 24.625V37.9583H35V21.9583C35 21.6047 35.1317 21.2656 35.3661 21.0155C35.6005 20.7655 35.9185 20.625 36.25 20.625C36.5815 20.625 36.8995 20.7655 37.1339 21.0155C37.3683 21.2656 37.5 21.6047 37.5 21.9583V37.9583H38.75C39.0815 37.9583 39.3995 38.0988 39.6339 38.3489C39.8683 38.5989 40 38.938 40 39.2917C40 39.6453 39.8683 39.9844 39.6339 40.2345C39.3995 40.4845 39.0815 40.625 38.75 40.625H1.25C0.918479 40.625 0.600537 40.4845 0.366117 40.2345C0.131696 39.9844 3.61614e-08 39.6453 3.61614e-08 39.2917C3.61614e-08 38.938 0.131696 38.5989 0.366117 38.3489C0.600537 38.0988 0.918479 37.9583 1.25 37.9583H2.5V21.9583C2.5 21.6047 2.6317 21.2656 2.86612 21.0155C3.10054 20.7655 3.41848 20.625 3.75 20.625ZM10 37.9583H17.5V24.625H10V37.9583ZM22.5 24.625C22.5 23.9178 22.7634 23.2395 23.2322 22.7394C23.7011 22.2393 24.337 21.9583 25 21.9583H30C30.663 21.9583 31.2989 22.2393 31.7678 22.7394C32.2366 23.2395 32.5 23.9178 32.5 24.625V32.625C32.5 33.3322 32.2366 34.0105 31.7678 34.5106C31.2989 35.0107 30.663 35.2917 30 35.2917H25C24.337 35.2917 23.7011 35.0107 23.2322 34.5106C22.7634 34.0105 22.5 33.3322 22.5 32.625V24.625ZM30 24.625H25V32.625H30V24.625Z" fill="#00868A"/>
</g>
<defs>
<clipPath id="clip0_211_2658">
<rect width="40" height="40" fill="white" transform="translate(0 0.625)"/>
</clipPath>
</defs>
</svg>
